<?xml version="1.0" encoding="utf-8"?>
<!-- Generator: Adobe Illustrator 23.0.1, SVG Export Plug-In . SVG Version: 6.00 Build 0)  -->
<svg version="1.1" id="ikona_zubu" xmlns="http://www.w3.org/2000/svg" xmlns:xlink="http://www.w3.org/1999/xlink" x="0px" y="0px"
	 viewBox="0 0 640 480" style="enable-background:new 0 0 640 480;" xml:space="preserve">
<style type="text/css">
	.st0{fill:none;stroke:#79BED7;stroke-width:6;stroke-miterlimit:10;}
	.st1{fill:#79BED7;}
</style>
<g id="zub">
	<path class="st0" d="M258.2,122.2c4.6-1.3,9.4-1.6,14.1-1.3c6.2,0.4,12.4,1.9,18.3,3.7c6.6,2,13.3,3.9,20.2,5.2
		c3.7,0.6,7.4,1.2,11.1,0.9c1.5-0.1,3.1-0.3,4.6-0.5c3.4-0.5,6.8-1.2,10.2-2c3.2-0.8,6.4-1.7,9.6-2.6c3.1-0.9,6.1-1.9,9.2-2.7
		c3.4-0.8,6.8-1.5,10.2-1.8c3.8-0.4,7.7-0.4,11.4,0.1c2.6,0.4,5.2,1,7.6,1.9c4.7,1.7,9,4.5,12.5,8c2.9,3,5.3,6.5,7,10.2
		c1.9,4,3.2,8.3,4.1,12.6c1,4.2,1.5,8.5,1.6,12.8c0.1,4.6-0.4,9.2-1.4,13.7c-0.4,1.8-0.8,3.5-1.3,5.2c-2.6,9.1-5.9,18-9.7,26.6
		c-2.2,4.9-4.4,9.9-6.1,15.1c-1.2,3.5-2.2,7.1-2.8,10.7c-0.2,0.9-0.3,1.7-0.3,2.6c-0.3,3.6-0.3,7.3-0.3,10.9c0,1,0,2,0,3
		c0,3.1,0.1,6.3,0.2,9.4c0.2,11.6-0.2,23.3-1.5,34.9c-0.2,1.6-0.4,3.1-0.7,4.6c-1.1,6.9-2.3,13.8-3.9,20.7c-1.4,5.9-3,11.7-5.3,17.4
		c-1.1,2.7-2.3,5.4-3.8,7.9c-1.3,2.2-2.8,4.3-4.7,6c-1.8,1.7-4.1,3-6.5,3.4c-2.8,0.4-5.9-0.2-8.2-1.8c-1.9-1.3-3.2-3.3-4.1-5.4
		c-0.6-1.4-1-2.9-1.4-4.4c-0.5-1.9-0.9-3.8-1.3-5.7c-0.6-3.3-0.8-6.7-0.9-10c-0.1-2.1-0.1-4.2,0-6.3c0-3.7,0.2-7.4,0.5-11.1
		c0.3-3.7,0.6-7.5,0.8-11.2c0.1-2,0.3-4,0.4-6c0.2-3.9,0.4-7.9,0.3-11.8c0-1.9-0.2-3.7-0.5-5.6c-0.2-1.8-0.5-3.7-0.9-5.5
		c-0.8-3.7-1.9-7.4-3.6-10.8c-1.8-3.7-4.4-7-7.7-9.4c-2.1-1.5-4.4-2.6-6.9-3.3c-2.8-0.8-5.8-1.1-8.7-1.1c-2.9,0-5.9,0.4-8.6,1.3
		c-2.6,0.8-5,2.1-7.1,3.7c-1.9,1.5-3.6,3.3-4.9,5.3c-1.5,2.2-2.6,4.5-3.6,7c-1.9,5.1-2.8,10.6-3.3,16.1c-0.2,2.9-0.1,5.8,0,8.7
		c0.2,4.5,0.5,9,0.8,13.4c0.2,3.7,0.4,7.3,0.6,11c0.2,3.5,0.3,7.1,0.4,10.6c0.1,4,0.2,8.1-0.3,12.1c-0.4,3.1-1,6.1-1.8,9
		c-0.4,1.5-0.8,3-1.4,4.4c-0.6,1.3-1.3,2.5-2.3,3.6c-1.6,1.7-3.7,2.8-6,3.2c-1.7,0.3-3.5,0.3-5.2-0.3c-2.3-0.7-4.3-2.1-5.9-3.8
		c-1.8-1.8-3.2-3.9-4.4-6.1c-1.5-2.6-2.7-5.4-3.8-8.2c-2.2-5.9-3.9-11.9-5.2-18.1c-1.7-7.8-3.1-15.6-4.1-23.5
		c-1.3-11.8-1.8-23.8-1.5-35.7c0.1-4.1,0.2-8.3,0.2-12.4c0-3.4,0-6.8-0.3-10.3c-0.1-1.7-0.4-3.4-0.8-5.1c-0.7-3.1-1.6-6-2.6-9
		c-1-2.9-2.2-5.8-3.4-8.7c-1.1-2.7-2.4-5.4-3.6-8.1c-3.1-7.3-5.9-14.8-8.1-22.4c-0.8-2.9-1.7-5.8-2.2-8.8c-0.7-3.5-1.1-7.1-1.2-10.7
		v-3c0.1-3.8,0.5-7.5,1.3-11.2c0.9-4.1,2.2-8.1,4-11.8c2.2-4.7,5.3-9.1,9.2-12.5C248.4,126.2,253.2,123.7,258.2,122.2z"/>
</g>
<g id="ZZZ">
	<g>
		<path class="st1" d="M334.6,196.7c0,0.9-0.1,2-0.1,2.9c-0.4,2.2-12.2,15.7-19.3,24.7h5.2c3.6,0,6.5-0.1,13-1.2
			c0.4,1.4,0.6,2.6,0.6,3.9c0,1.5-0.3,2.8-1.2,4.3l-0.2,0.3c-1.1,1.3-1.3,1.5-10.1,1.5h-6.4c0,0,0,0-1.6,0c-9.1,0-9.8,0-9.8-5.5
			v-2.1c0-4.5,18.8-22.2,20.6-25.2c-2.8,0-7.2,0-7.2,0c-5.4,0.4-6.3,0-11,1.2c-1-3.3-1.5-5.4-1.5-6.8c0-2.6,1.7-2.9,5.4-3.4l1.4-0.2
			c2.2-0.3,3.1-0.3,5.3-0.3h3.3c9,0,12.6,1.8,12.9,2.8C334.5,194.4,334.6,195.5,334.6,196.7z"/>
	</g>
	<g>
		<path class="st1" d="M392.7,146.9c0,1.3-0.1,2.8-0.1,4.3c-0.6,3.2-17.7,22.8-27.9,35.7h7.6c5.2,0,9.4-0.2,18.8-1.7
			c0.5,2,0.9,3.8,0.9,5.6c0,2.1-0.4,4.1-1.7,6.2l-0.4,0.4c-1.6,1.9-1.9,2.1-14.6,2.1h-9.2c0,0,0,0-2.3,0c-13.2,0-14.1,0-14.1-8v-3.1
			c0-6.6,27.3-32.2,29.8-36.4c-4,0-10.4,0-10.4,0c-7.8,0.6-9.2,0-15.9,1.8c-1.5-4.7-2.2-7.8-2.2-9.9c0-3.7,2.5-4.2,7.8-4.9l2-0.3
			c3.2-0.4,4.5-0.4,7.6-0.4h4.8c13,0,18.2,2.7,18.8,4C392.6,143.5,392.7,145.1,392.7,146.9z"/>
	</g>
	<g>
		<path class="st1" d="M477.6,77.4c0,1.9-0.1,4-0.1,6c-0.9,4.5-24.9,32-39.2,50.2h10.6c7.4,0,13.2-0.3,26.5-2.4
			c0.8,2.9,1.3,5.4,1.3,7.9c0,3-0.6,5.7-2.4,8.7l-0.5,0.6c-2.3,2.6-2.6,3-20.5,3h-13c0,0,0,0-3.2,0c-18.5,0-19.9,0-19.9-11.2v-4.4
			c0-9.2,38.4-45.2,41.9-51.2c-5.6,0-14.6,0-14.6,0c-11,0.9-12.9,0-22.4,2.5c-2.1-6.6-3.1-11-3.1-13.9c0-5.2,3.5-5.9,11-6.9l2.9-0.4
			c4.5-0.6,6.4-0.6,10.7-0.6h6.7c18.2,0,25.6,3.7,26.4,5.6C477.5,72.6,477.6,74.9,477.6,77.4z"/>
	</g>
</g>
</svg>
