<?xml version="1.0" encoding="utf-8"?>
<!-- Generator: Adobe Illustrator 21.0.2, SVG Export Plug-In . SVG Version: 6.00 Build 0)  -->
<svg version="1.1" id="ikona_zubu" xmlns="http://www.w3.org/2000/svg" xmlns:xlink="http://www.w3.org/1999/xlink" x="0px" y="0px"
	 viewBox="0 0 640 480" enable-background="new 0 0 640 480" xml:space="preserve">
<g id="zub">
	<path fill="none" stroke="#79BED7" stroke-width="6" stroke-miterlimit="10" d="M258.2,122.2c4.6-1.3,9.4-1.6,14.1-1.3
		c6.2,0.4,12.4,1.9,18.3,3.7c6.6,2,13.3,3.9,20.2,5.2c3.7,0.6,7.4,1.2,11.1,0.9c1.5-0.1,3.1-0.3,4.6-0.5c3.4-0.5,6.8-1.2,10.2-2
		c3.2-0.8,6.4-1.7,9.6-2.6c3.1-0.9,6.1-1.9,9.2-2.7c3.4-0.8,6.8-1.5,10.2-1.8c3.8-0.4,7.7-0.4,11.4,0.1c2.6,0.4,5.2,1,7.6,1.9
		c4.7,1.7,9,4.5,12.5,8c2.9,3,5.3,6.5,7,10.2c1.9,4,3.2,8.3,4.1,12.6c1,4.2,1.5,8.5,1.6,12.8c0.1,4.6-0.4,9.2-1.4,13.7
		c-0.4,1.8-0.8,3.5-1.3,5.2c-2.6,9.1-5.9,18-9.7,26.6c-2.2,4.9-4.4,9.9-6.1,15.1c-1.2,3.5-2.2,7.1-2.8,10.7
		c-0.2,0.9-0.3,1.7-0.3,2.6c-0.3,3.6-0.3,7.3-0.3,10.9c0,1,0,2,0,3c0,3.1,0.1,6.3,0.2,9.4c0.2,11.6-0.2,23.3-1.5,34.9
		c-0.2,1.6-0.4,3.1-0.7,4.6c-1.1,6.9-2.3,13.8-3.9,20.7c-1.4,5.9-3,11.7-5.3,17.4c-1.1,2.7-2.3,5.4-3.8,7.9c-1.3,2.2-2.8,4.3-4.7,6
		c-1.8,1.7-4.1,3-6.5,3.4c-2.8,0.4-5.9-0.2-8.2-1.8c-1.9-1.3-3.2-3.3-4.1-5.4c-0.6-1.4-1-2.9-1.4-4.4c-0.5-1.9-0.9-3.8-1.3-5.7
		c-0.6-3.3-0.8-6.7-0.9-10c-0.1-2.1-0.1-4.2,0-6.3c0-3.7,0.2-7.4,0.5-11.1c0.3-3.7,0.6-7.5,0.8-11.2c0.1-2,0.3-4,0.4-6
		c0.2-3.9,0.4-7.9,0.3-11.8c0-1.9-0.2-3.7-0.5-5.6c-0.2-1.8-0.5-3.7-0.9-5.5c-0.8-3.7-1.9-7.4-3.6-10.8c-1.8-3.7-4.4-7-7.7-9.4
		c-2.1-1.5-4.4-2.6-6.9-3.3c-2.8-0.8-5.8-1.1-8.7-1.1c-2.9,0-5.9,0.4-8.6,1.3c-2.6,0.8-5,2.1-7.1,3.7c-1.9,1.5-3.6,3.3-4.9,5.3
		c-1.5,2.2-2.6,4.5-3.6,7c-1.9,5.1-2.8,10.6-3.3,16.1c-0.2,2.9-0.1,5.8,0,8.7c0.2,4.5,0.5,9,0.8,13.4c0.2,3.7,0.4,7.3,0.6,11
		c0.2,3.5,0.3,7.1,0.4,10.6c0.1,4,0.2,8.1-0.3,12.1c-0.4,3.1-1,6.1-1.8,9c-0.4,1.5-0.8,3-1.4,4.4c-0.6,1.3-1.3,2.5-2.3,3.6
		c-1.6,1.7-3.7,2.8-6,3.2c-1.7,0.3-3.5,0.3-5.2-0.3c-2.3-0.7-4.3-2.1-5.9-3.8c-1.8-1.8-3.2-3.9-4.4-6.1c-1.5-2.6-2.7-5.4-3.8-8.2
		c-2.2-5.9-3.9-11.9-5.2-18.1c-1.7-7.8-3.1-15.6-4.1-23.5c-1.3-11.8-1.8-23.8-1.5-35.7c0.1-4.1,0.2-8.3,0.2-12.4
		c0-3.4,0-6.8-0.3-10.3c-0.1-1.7-0.4-3.4-0.8-5.1c-0.7-3.1-1.6-6-2.6-9c-1-2.9-2.2-5.8-3.4-8.7c-1.1-2.7-2.4-5.4-3.6-8.1
		c-3.1-7.3-5.9-14.8-8.1-22.4c-0.8-2.9-1.7-5.8-2.2-8.8c-0.7-3.5-1.1-7.1-1.2-10.7v-3c0.1-3.8,0.5-7.5,1.3-11.2
		c0.9-4.1,2.2-8.1,4-11.8c2.2-4.7,5.3-9.1,9.2-12.5C248.4,126.2,253.2,123.7,258.2,122.2z"/>
</g>
<g id="nit_s_drazdly">
	<g id="nit_1_">
		<g>
			<path fill="#79BED7" d="M406.3,160c3.2,0.3,6.5,0.7,9.7,1.1c3.2,0.5,6.4,1,9.6,1.7c3.2,0.6,6.4,1.5,9.6,2.4
				c3.2,1,6.4,2.1,9.6,3.8c1.6,0.9,3.1,2.1,4.5,3.7c0.7,0.8,1.4,1.8,2,3c0.1,0.3,0.3,0.6,0.4,0.9c0.1,0.3,0.2,0.7,0.3,1.1
				c0.2,0.8,0.2,1.4,0.2,2c0,0.6-0.1,1.3-0.2,1.9c-0.1,0.6-0.3,1.2-0.5,1.8c-0.2,0.6-0.4,1.1-0.7,1.6c-0.2,0.5-0.5,1-0.8,1.4
				c-1.1,1.8-2.3,3.1-3.6,4.4c-2.5,2.5-5.1,4.6-7.7,6.6c-2.6,2-5.2,3.9-7.9,5.8c-5.2,3.8-10.5,7.6-16.1,11.1
				c-5.6,3.5-11.1,6.7-16.3,10.2c-2.6,1.8-5.3,3.6-7.9,5.5c-2.6,1.8-5.2,3.7-7.8,5.5c-2.6,1.9-5.1,3.8-7.4,5.7c-2.3,2-4.6,4-6.1,6.1
				c-0.4,0.5-0.7,1.1-1,1.6c-0.2,0.5-0.5,1-0.7,1.5c-0.2,0.5-0.2,1-0.3,1.5l0,0.9l0,0.4l0,0.4c0.2,2.3,1.1,4.8,2.6,7.1
				c3,4.7,7.7,8.8,12.6,12.4c5,3.6,10.4,6.9,15.9,9.8c5.6,3,11.3,5.6,17.1,8.1c5.9,2.5,11.8,5,17.6,6.8c2.9,1,5.9,1.7,8.8,2.2
				c1.5,0.3,2.9,0.4,4.4,0.5c1.4,0,2.9,0,4.3,0c2.8,0.1,5.7-0.2,8.4-1.1c0.7-0.2,1.3-0.5,2-0.8l1-0.4l1-0.5c1.3-0.7,2.6-1.5,3.8-2.4
				c4.9-3.6,8.6-8.9,11.3-14.8c-0.6,3.2-1.6,6.3-2.9,9.4c-1.4,3-3.2,5.9-5.5,8.5c-2.2,2.7-5.1,4.8-8.3,6.5
				c-3.2,1.8-6.7,2.8-10.3,3.4c-0.9,0.1-1.8,0.3-2.7,0.2l-2.7-0.1c-1.7-0.2-3.5-0.3-5.2-0.7c-3.4-0.6-6.7-1.4-9.9-2.5
				c-6.4-2-12.4-4.6-18.4-7.1c-6-2.6-11.9-5.3-17.8-8.4c-5.8-3.1-11.5-6.5-16.9-10.4c-2.7-2-5.3-4.1-7.8-6.5c-2.5-2.4-4.8-5-6.8-8.1
				c-1.9-3.1-3.5-6.8-3.8-10.9l-0.1-0.8l0-0.8l0.1-1.5c0.1-1.1,0.3-2.2,0.7-3.2c0.3-1.1,0.8-2,1.2-2.9c0.5-0.8,1-1.7,1.6-2.5
				c2.3-3.1,4.9-5.4,7.4-7.5c2.6-2.2,5.2-4.1,7.9-6.1c2.6-1.9,5.3-3.8,7.9-5.6c2.7-1.9,5.3-3.7,8-5.5c5.4-3.7,11.1-7,16.5-10.3
				c5.4-3.4,10.5-7,15.7-10.8c2.6-1.9,5.2-3.8,7.6-5.7c2.5-1.9,4.9-3.9,6.9-5.9c1-1,1.9-2.1,2.5-3c0.6-1,0.9-1.8,0.9-2.4
				c0-0.2,0-0.4,0-0.4c0,0,0,0,0-0.1c0-0.1-0.1-0.1-0.1-0.2c-0.1-0.2-0.4-0.6-0.7-1c-0.7-0.7-1.9-1.5-2.9-2.3
				c-2.2-1.7-4.9-3.3-7.6-4.8c-2.8-1.5-5.7-2.7-8.6-4c-2.9-1.3-5.9-2.5-8.9-3.6C412.4,162.2,409.4,161.1,406.3,160z"/>
		</g>
		<g>
			<path fill="#79BED7" d="M233.4,160c-3.1,1.1-6.1,2.2-9.1,3.4c-3,1.1-6,2.3-8.9,3.6c-2.9,1.3-5.8,2.6-8.6,4
				c-2.8,1.4-5.4,3-7.6,4.8c-1.1,0.9-2.2,1.6-2.9,2.3c-0.3,0.4-0.6,0.7-0.7,1c0,0.1,0,0.1-0.1,0.2c0,0,0,0.1,0,0.1c0,0,0,0.2,0,0.4
				c0,0.6,0.3,1.4,0.9,2.4c0.6,1,1.5,2,2.5,3c2,2,4.4,4,6.9,5.9c2.5,1.9,5.1,3.8,7.6,5.7c5.2,3.8,10.3,7.5,15.7,10.8
				c5.3,3.4,11,6.6,16.5,10.3c2.7,1.9,5.3,3.7,8,5.5c2.6,1.8,5.3,3.7,7.9,5.6c2.6,1.9,5.3,3.9,7.9,6.1c2.6,2.2,5.2,4.5,7.4,7.5
				c0.6,0.7,1.1,1.6,1.6,2.5c0.4,0.9,0.9,1.8,1.2,2.9c0.4,1,0.6,2.1,0.7,3.2l0.1,1.5l0,0.8l-0.1,0.8c-0.3,4.1-1.8,7.8-3.8,10.9
				c-2,3.1-4.3,5.7-6.8,8.1c-2.5,2.4-5.1,4.5-7.8,6.5c-5.4,4-11.1,7.4-16.9,10.4c-5.8,3.1-11.7,5.9-17.8,8.4
				c-6,2.5-11.9,5.1-18.4,7.1c-3.2,1-6.5,1.9-9.9,2.5c-1.7,0.3-3.5,0.4-5.2,0.7l-2.7,0.1c-0.9,0.1-1.8-0.1-2.7-0.2
				c-3.6-0.6-7.1-1.6-10.3-3.4c-3.1-1.8-6-3.9-8.3-6.5c-2.3-2.6-4.1-5.5-5.5-8.5c-1.3-3.1-2.3-6.2-2.9-9.4
				c2.8,5.8,6.5,11.2,11.3,14.8c1.2,0.9,2.5,1.7,3.8,2.4l1,0.5l1,0.4c0.7,0.2,1.3,0.6,2,0.8c2.7,0.9,5.6,1.1,8.4,1.1
				c1.4,0,2.8,0,4.3,0c1.5-0.1,2.9-0.2,4.4-0.5c2.9-0.5,5.9-1.2,8.8-2.2c5.9-1.8,11.7-4.4,17.6-6.8c5.8-2.5,11.6-5.2,17.1-8.1
				c5.6-3,10.9-6.2,15.9-9.8c4.9-3.6,9.6-7.7,12.6-12.4c1.5-2.3,2.4-4.8,2.6-7.1l0-0.4l0-0.4l0-0.9c-0.1-0.5-0.1-1-0.3-1.5
				c-0.1-0.5-0.4-1-0.7-1.5c-0.4-0.5-0.6-1.1-1-1.6c-1.6-2.1-3.8-4.2-6.1-6.1c-2.4-2-4.9-3.9-7.4-5.7c-2.6-1.9-5.2-3.7-7.8-5.5
				c-2.6-1.8-5.3-3.7-7.9-5.5c-5.2-3.5-10.7-6.7-16.3-10.2c-5.6-3.5-10.9-7.3-16.1-11.1c-2.6-1.9-5.2-3.8-7.9-5.8
				c-2.6-2-5.2-4.1-7.7-6.6c-1.2-1.3-2.5-2.6-3.6-4.4c-0.3-0.4-0.5-0.9-0.8-1.4c-0.2-0.5-0.5-1-0.7-1.6c-0.2-0.6-0.4-1.1-0.5-1.8
				c-0.1-0.6-0.2-1.2-0.2-1.9c0-0.6,0-1.2,0.2-2c0.1-0.4,0.2-0.7,0.3-1.1c0.1-0.3,0.3-0.6,0.4-0.9c0.6-1.2,1.3-2.2,2-3
				c1.4-1.6,2.9-2.8,4.5-3.7c3.2-1.7,6.4-2.8,9.6-3.8c3.2-1,6.4-1.8,9.6-2.4c3.2-0.7,6.4-1.2,9.6-1.7
				C226.9,160.7,230.2,160.3,233.4,160z"/>
		</g>
	</g>
</g>
<g>
</g>
<g>
</g>
<g>
</g>
<g>
</g>
<g>
</g>
</svg>
