<?xml version="1.0" encoding="utf-8"?>
<!-- Generator: Adobe Illustrator 21.0.2, SVG Export Plug-In . SVG Version: 6.00 Build 0)  -->
<svg version="1.1" id="ikona_zubu" xmlns="http://www.w3.org/2000/svg" xmlns:xlink="http://www.w3.org/1999/xlink" x="0px" y="0px"
	 viewBox="0 0 640 480" enable-background="new 0 0 640 480" xml:space="preserve">
<g id="zub">
	<path fill="none" stroke="#79BED7" stroke-width="6" stroke-miterlimit="10" d="M251.9,271.6c0-10.1,1.1-23.6-0.9-33.6
		c-4-18-12-34-18-51c-8-23-3-54,22-64c20-8,40,4,61,7c18,2,33-6,49.7-8.8"/>
	<path fill="none" stroke="#79BED7" stroke-width="6" stroke-miterlimit="10" d="M409.4,158.4C413,181,400,203,392,224
		c-2,6-3,11-4,17c0,16,0,32,0,48c-1,11-3,21-4,32c-3,15-7,32-21,39c-4,1-8-1-10-3c-9-9-8-22-8-34c2-24,11-55-12-70c-9-6-21-6-30,2
		c-11,10-12,25-11,39c2,16,4,32,2,49c-1,7-4,14-11,16c-7,1-13-4-17-10c-8-16-10.5-27.6-12.5-45.6"/>
	<path fill="none" stroke="#79BED7" stroke-width="6" stroke-miterlimit="10" d="M381.9,122c10.1,3.8,18.8,11.7,23.3,21.6"/>
</g>
<path fill="#79BED7" stroke="#79BED7" stroke-width="6" stroke-miterlimit="10" d="M256.1,260.8l5.3,18.4c0.1,0.2,0.2,0.3,0.4,0.4
	l18.3,5.9c0.5,0.2,0.5,0.9,0,1.1l-18.3,5.2c-0.2,0.1-0.3,0.2-0.4,0.4l-5.3,19.7c-0.1,0.5-0.9,0.5-1.1,0l-5.4-19.7
	c-0.1-0.2-0.2-0.3-0.4-0.4l-18.4-5.2c-0.5-0.1-0.5-0.9,0-1.1l18.4-5.9c0.2-0.1,0.3-0.2,0.4-0.4l5.4-18.4
	C255.2,260.3,256,260.3,256.1,260.8z"/>
<path fill="#79BED7" stroke="#79BED7" stroke-width="6" stroke-miterlimit="10" d="M375.6,101.1l10.7,36.9c0.1,0.3,0.4,0.6,0.7,0.7
	l36.6,11.9c1,0.3,1,1.8,0,2.1L387,163.1c-0.4,0.1-0.7,0.4-0.8,0.8l-10.7,39.5c-0.3,1.1-1.8,1.1-2.1,0l-10.8-39.5
	c-0.1-0.4-0.4-0.7-0.8-0.8l-36.8-10.4c-1-0.3-1.1-1.8,0-2.1l36.9-11.9c0.3-0.1,0.6-0.4,0.7-0.7l10.8-36.9
	C373.8,100,375.3,100,375.6,101.1z"/>
<g>
</g>
<g>
</g>
<g>
</g>
<g>
</g>
<g>
</g>
</svg>
