<?xml version="1.0" encoding="utf-8"?>
<!-- Generator: Adobe Illustrator 21.0.2, SVG Export Plug-In . SVG Version: 6.00 Build 0)  -->
<svg version="1.1" id="ikona_zubu" xmlns="http://www.w3.org/2000/svg" xmlns:xlink="http://www.w3.org/1999/xlink" x="0px" y="0px"
	 viewBox="0 0 640 480" enable-background="new 0 0 640 480" xml:space="preserve">
<g id="zub">
	<path fill="none" stroke="#79BED7" stroke-width="6" stroke-miterlimit="10" d="M397.3,131.2c2.9,3,5.3,6.5,7,10.2
		c1.9,4,3.2,8.3,4.1,12.6c1,4.2,1.5,8.5,1.6,12.8c0.1,4.6-0.4,9.2-1.4,13.7c-0.4,1.8-0.8,3.5-1.3,5.2c-2.6,9.1-5.9,18-9.7,26.6
		c-2.2,4.9-4.4,9.9-6.1,15.1c-1.2,3.5-2.2,7.1-2.8,10.7c-0.2,0.9-0.3,1.7-0.3,2.6c-0.3,3.6-0.3,7.3-0.3,10.9c0,1,0,2,0,3
		c0,3.1,0.1,6.3,0.2,9.4c0.2,11.6-0.2,23.3-1.5,34.9c-0.2,1.6-0.4,3.1-0.7,4.6c-1.1,6.9-2.3,13.8-3.9,20.7c-1.4,5.9-3,11.7-5.3,17.4
		c-1.1,2.7-2.3,5.4-3.8,7.9c-1.3,2.2-2.8,4.3-4.7,6c-1.8,1.7-4.1,3-6.5,3.4c-2.8,0.4-5.9-0.2-8.2-1.8c-1.9-1.3-3.2-3.3-4.1-5.4
		c-0.6-1.4-1-2.9-1.4-4.4c-0.5-1.9-0.9-3.8-1.3-5.7c-0.6-3.3-0.8-6.7-0.9-10c-0.1-2.1-0.1-4.2,0-6.3c0-3.7,0.2-7.4,0.5-11.1
		c0.3-3.7,0.6-7.5,0.8-11.2c0.1-2,0.3-4,0.4-6c0.2-3.9,0.4-7.9,0.3-11.8c0-1.9-0.2-3.7-0.5-5.6c-0.2-1.8-0.5-3.7-0.9-5.5
		c-0.8-3.7-1.9-7.4-3.6-10.8c-1.8-3.7-4.4-7-7.7-9.4c-2.1-1.5-4.4-2.6-6.9-3.3c-2.8-0.8-5.8-1.1-8.7-1.1c-2.9,0-5.9,0.4-8.6,1.3
		c-2.6,0.8-5,2.1-7.1,3.7c-1.9,1.5-3.6,3.3-4.9,5.3c-1.5,2.2-2.6,4.5-3.6,7c-1.9,5.1-2.8,10.6-3.3,16.1c-0.2,2.9-0.1,5.8,0,8.7
		c0.2,4.5,0.5,9,0.8,13.4c0.2,3.7,0.4,7.3,0.6,11c0.2,3.5,0.3,7.1,0.4,10.6c0.1,4,0.2,8.1-0.3,12.1c-0.4,3.1-1,6.1-1.8,9
		c-0.4,1.5-0.8,3-1.4,4.4c-0.6,1.3-1.3,2.5-2.3,3.6c-1.6,1.7-3.7,2.8-6,3.2c-1.7,0.3-3.5,0.3-5.2-0.3c-2.3-0.7-4.3-2.1-5.9-3.8
		c-1.8-1.8-3.2-3.9-4.4-6.1c-1.5-2.6-2.7-5.4-3.8-8.2c-2.2-5.9-3.9-11.9-5.2-18.1c-1.7-7.8-3.1-15.6-4.1-23.5
		c-1.3-11.8-1.8-23.8-1.5-35.7c0.1-4.1,0.2-8.3,0.2-12.4c0-3.4,0-6.8-0.3-10.3c-0.1-1.7-0.4-3.4-0.8-5.1c-0.7-3.1-1.6-6-2.6-9
		c-1-2.9-2.2-5.8-3.4-8.7c-1.1-2.7-2.4-5.4-3.6-8.1c-3.1-7.3-5.9-14.8-8.1-22.4c-0.8-2.9-1.7-5.8-2.2-8.8c-0.7-3.5-1.1-7.1-1.2-10.7
		v-3c0.1-3.8,0.5-7.5,1.3-11.2c0.9-4.1,2.2-8.1,4-11.8c2.2-4.7,5.3-9.1,9.2-12.5c3.9-3.5,8.7-5.9,13.7-7.4c4.6-1.3,9.4-1.6,14.1-1.3
		c6.2,0.4,12.4,1.9,18.3,3.7c6.6,2,13.3,3.9,20.2,5.2c3.7,0.6,7.4,1.2,11.1,0.9c1.5-0.1,3.1-0.3,4.6-0.5c3.4-0.5,6.8-1.2,10.2-2
		c3.2-0.8,6.4-1.7,9.6-2.6c3.1-0.9,6.1-1.9,9.2-2.7c3.4-0.8,6.8-1.5,10.2-1.8c3.8-0.4,7.7-0.4,11.4,0.1"/>
</g>
<g id="korunka">
	<g id="_x31_">
		<path id="tělo" fill="#79BED7" d="M375.3,141.9l37,15.9c4.9-6.5,10.1-13.2,15.9-20c7.6-9,15.3-17.3,22.9-24.9
			c-10.5,4.1-21,8.2-31.4,12.4c-2.8-4.6-6.1-10.7-8.6-18c-1.1-3.1-2.1-6.5-2.8-10c-3.9-18.5,0.2-32.4,3.2-39.8
			C399.4,85.7,387.3,113.8,375.3,141.9z"/>
		
			<ellipse id="koule" transform="matrix(0.3939 -0.9192 0.9192 0.3939 168.8533 481.4645)" fill="#79BED7" cx="449.5" cy="112.7" rx="5.7" ry="7.5"/>
		<path fill="#79BED7" d="M415.3,114.1c0.6,1.3,1.3,2.7,2.1,4.1c1,1.8,2,3.6,3,5.2c1.6-0.6,3.1-1.2,4.7-1.9c1.5-0.6,3-1.2,4.5-1.8
			c-1.4-2.8-2.7-5.7-4.1-8.5C422.1,112.3,418.7,113.2,415.3,114.1z"/>
		
			<ellipse transform="matrix(0.3939 -0.9192 0.9192 0.3939 157.9044 457.5216)" fill="#79BED7" cx="425.9" cy="109" rx="4.9" ry="6.5"/>
		
			<ellipse id="střední_koule_1_" transform="matrix(0.3939 -0.9192 0.9192 0.3939 191.4469 413.1464)" fill="#79BED7" cx="409" cy="61.4" rx="5.7" ry="7.5"/>
	</g>
	<g id="_x32_">
		<path id="tělo_2_" fill="#79BED7" d="M373.9,141.3l-37-15.9c1.4-8,2.6-16.4,3.5-25.2c1.3-11.7,2-23,2.3-33.8
			c4.2,10.4,8.5,20.9,12.7,31.3c5.3-1.1,12-3,18.9-6.2c3-1.4,6.1-3,9.2-4.9c16.1-9.9,23.3-22.6,26.6-29.8
			C398,85.1,386,113.2,373.9,141.3z"/>
		
			<ellipse id="koule_2_" transform="matrix(0.3939 -0.9192 0.9192 0.3939 146.446 356.9969)" fill="#79BED7" cx="343.9" cy="67.5" rx="5.7" ry="7.5"/>
		<path fill="#79BED7" d="M366.4,93.2c-1.4,0.5-2.9,0.9-4.4,1.4c-2,0.6-3.9,1-5.8,1.4c-0.6-1.6-1.3-3.1-1.9-4.7
			c-0.6-1.5-1.2-3-1.8-4.5c3-1,6-1.9,9-2.9C363.1,87,364.8,90.1,366.4,93.2z"/>
		
			<ellipse transform="matrix(0.3939 -0.9192 0.9192 0.3939 144.5346 383.2551)" fill="#79BED7" cx="362.9" cy="82" rx="4.9" ry="6.5"/>
		
			<ellipse id="střední_koule_3_" transform="matrix(0.3939 -0.9192 0.9192 0.3939 191.4469 413.1464)" fill="#79BED7" cx="409" cy="61.4" rx="5.7" ry="7.5"/>
	</g>
</g>
<g>
</g>
<g>
</g>
<g>
</g>
<g>
</g>
<g>
</g>
</svg>
