<?xml version="1.0" encoding="utf-8"?>
<!-- Generator: Adobe Illustrator 21.0.2, SVG Export Plug-In . SVG Version: 6.00 Build 0)  -->
<svg version="1.1" id="ikona_zubu" xmlns="http://www.w3.org/2000/svg" xmlns:xlink="http://www.w3.org/1999/xlink" x="0px" y="0px"
	 viewBox="0 0 640 480" enable-background="new 0 0 640 480" xml:space="preserve">
<g id="zub">
	<path fill="none" stroke="#79BED7" stroke-width="6" stroke-miterlimit="10" d="M319.7,249.4c-2.9,0-5.9,0.4-8.6,1.3
		c-2.6,0.8-5,2.1-7.1,3.7c-1.9,1.5-3.6,3.3-4.9,5.3c-1.5,2.2-2.6,4.5-3.6,7c-1.9,5.1-2.8,10.6-3.3,16.1c-0.2,2.9-0.1,5.8,0,8.7
		c0.2,4.5,0.5,9,0.8,13.4c0.2,3.7,0.4,7.3,0.6,11c0.2,3.5,0.3,7.1,0.4,10.6c0.1,4,0.2,8.1-0.3,12.1c-0.4,3.1-1,6.1-1.8,9
		c-0.4,1.5-0.8,3-1.4,4.4c-0.6,1.3-1.3,2.5-2.3,3.6c-1.6,1.7-3.7,2.8-6,3.2c-1.7,0.3-3.5,0.3-5.2-0.3c-2.3-0.7-4.3-2.1-5.9-3.8
		c-1.8-1.8-3.2-3.9-4.4-6.1c-1.5-2.6-2.7-5.4-3.8-8.2c-2.2-5.9-3.9-11.9-5.2-18.1c-1.7-7.8-3.1-15.6-4.1-23.5
		c-1.3-11.8-1.8-23.8-1.5-35.7c0.1-4.1,0.2-8.3,0.2-12.4c0-3.4,0-6.8-0.3-10.3c-0.1-1.7-0.4-3.4-0.8-5.1c-0.7-3.1-1.6-6-2.6-9
		c-1-2.9-2.2-5.8-3.4-8.7c-1.1-2.7-2.4-5.4-3.6-8.1c-3.1-7.3-5.9-14.8-8.1-22.4c-0.8-2.9-1.7-5.8-2.2-8.8c-0.7-3.5-1.1-7.1-1.2-10.7
		v-3c0.1-3.8,0.5-7.5,1.3-11.2c0.9-4.1,2.2-8.1,4-11.8c2.2-4.7,5.3-9.1,9.2-12.5c3.9-3.5,8.7-5.9,13.7-7.4c4.6-1.3,9.4-1.6,14.1-1.3
		c6.2,0.4,12.4,1.9,18.3,3.7c6.6,2,13.3,3.9,20.2,5.2c3.7,0.6,7.4,1.2,11.1,0.9c1.5-0.1,3.1-0.3,4.6-0.5c3.4-0.5,6.8-1.2,10.2-2
		c3.2-0.8,6.4-1.7,9.6-2.6c3.1-0.9,6.1-1.9,9.2-2.7c3.4-0.8,6.8-1.5,10.2-1.8c3.8-0.4,7.7-0.4,11.4,0.1c2.6,0.4,5.2,1,7.6,1.9
		c4.7,1.7,9,4.5,12.5,8c2.9,3,5.3,6.5,7,10.2c1.9,4,3.2,8.3,4.1,12.6c1,4.2,1.5,8.5,1.6,12.8c0.1,4.6-0.4,9.2-1.4,13.7
		c-0.4,1.8-0.8,3.5-1.3,5.2c-2.6,9.1-5.9,18-9.7,26.6c-2.2,4.9-4.4,9.9-6.1,15.1c-1.2,3.5-2.2,7.1-2.8,10.7
		c-0.2,0.9-0.3,1.7-0.3,2.6c-0.3,3.6-0.3,7.3-0.3,10.9c0,1,0,2,0,3c0,3.1,0.1,6.3,0.2,9.4c0.2,11.6-0.2,23.3-1.5,34.9
		c-0.2,1.6-0.4,3.1-0.7,4.6c-1.1,6.9-2.3,13.8-3.9,20.7c-1.4,5.9-3,11.7-5.3,17.4c-1.1,2.7-2.3,5.4-3.8,7.9c-1.3,2.2-2.8,4.3-4.7,6
		c-1.8,1.7-4.1,3-6.5,3.4c-2.8,0.4-5.9-0.2-8.2-1.8c-1.9-1.3-3.2-3.3-4.1-5.4c-0.6-1.4-1-2.9-1.4-4.4c-0.5-1.9-0.9-3.8-1.3-5.7
		c-0.6-3.3-0.8-6.7-0.9-10c-0.1-2.1-0.1-4.2,0-6.3c0-3.7,0.2-7.4,0.5-11.1c0.3-3.7,0.6-7.5,0.8-11.2c0.1-2,0.3-4,0.4-6
		c0.2-3.9,0.4-7.9,0.3-11.8c0-1.9-0.2-3.7-0.5-5.6c-0.2-1.8-0.5-3.7-0.9-5.5c-0.8-3.7-1.9-7.4-3.6-10.8"/>
</g>
<g id="skalpel">
	<path fill="#79BED7" d="M420.5,131.8c3.7-3.9,9.8-5.5,14.9-3.5c3.6,1.2,6,4.2,8.6,6.7c2.8,2.9,5.8,5.7,8.6,8.6
		c2.2,2.3,3.5,5.4,3.8,8.6v1.5c-0.3,3.1-1.4,6.2-3.5,8.5c-2,2.2-4.2,4.2-6.3,6.4c-36.8,36.8-73.6,73.6-110.3,110.3
		c-1,1-2.4,1.8-3.9,1.6c-1.4-0.1-2.5-1.1-3.5-2.1c-2-2.1-4.1-4.1-6.2-6.2c23.8-23.8,47.5-47.5,71.3-71.3c1.7-1.7,3.7-3.5,4.1-6
		c0.7-3.7-2-7.2-5.2-8.8c-2.8-1.3-6.3-0.4-8.3,1.8c-24.3,24.4-48.7,48.6-72.9,73c-2.5-2.3-4.9-4.7-7.3-7.2c-1.8-1.8-1.3-4.8,0.5-6.4
		C343.4,208.9,381.9,170.3,420.5,131.8z"/>
	<path fill="#79BED7" d="M209.5,360.1c31.7-31.7,63.4-63.3,95-95c5.1,5,10.2,10.1,15.3,15.2c-4.4,3.3-7.6,7.9-10.5,12.5
		c-5,8.5-9.8,17.1-14.2,25.9c-3.6,6.7-6.9,13.7-11.4,19.9c-7.4,10.4-17.8,18.9-29.9,23.3c-13.9,5.2-29.3,5.2-43.5,1.5
		c-0.7-0.1-1.3-0.5-1.9-0.9v-0.9C208.7,361,209.1,360.6,209.5,360.1z"/>
</g>
<g>
</g>
<g>
</g>
<g>
</g>
<g>
</g>
<g>
</g>
</svg>
